<?xml version="1.0" encoding="UTF-8"?><svg id="a" xmlns="http://www.w3.org/2000/svg" viewBox="0 0 1000 1000"><defs><style>.b{fill:none;}</style></defs><path class="b" d="M0,1000V0C333.33,0,666.67,0,1000,0V1000H0Zm787.16-267.3c39.54-41.94,78.95-83.74,118.34-125.53-80.9-147.53-161.66-294.82-242.57-442.37-.82,1.31-1.4,2.22-1.96,3.14-44.7,72.98-89.37,145.97-134.15,218.91-1.45,2.36-1.44,3.75,.26,5.97,86.12,112.5,172.17,225.06,258.23,337.62,.55,.71,1.13,1.4,1.83,2.26ZM337.07,165.48c-80.99,147.66-161.75,294.89-242.57,442.25,39.45,41.83,78.85,83.61,118.35,125.49,.75-.93,1.28-1.56,1.78-2.22,86.23-112.74,172.46-225.49,258.73-338.21,1.23-1.61,1.38-2.7,.27-4.5-38.72-63.08-77.37-126.19-116.03-189.3-6.74-11-13.48-22-20.53-33.51Zm162.93,195.81c47.61-81.02,94.96-161.61,142.46-242.44H357.54c47.52,80.87,94.85,161.42,142.46,242.44Z"/><path d="M787.16,732.7c-.7-.86-1.29-1.55-1.83-2.26-86.06-112.55-172.11-225.11-258.23-337.62-1.7-2.22-1.71-3.62-.26-5.97,44.77-72.94,89.45-145.93,134.15-218.91,.56-.92,1.14-1.83,1.96-3.14,80.91,147.55,161.67,294.84,242.57,442.37-39.4,41.79-78.8,83.59-118.34,125.53Z"/><path d="M337.07,165.48c7.05,11.51,13.79,22.51,20.53,33.51,38.66,63.11,77.32,126.23,116.03,189.3,1.11,1.81,.96,2.89-.27,4.5-86.27,112.72-172.49,225.46-258.73,338.21-.5,.65-1.03,1.29-1.78,2.22-39.5-41.88-78.9-83.67-118.35-125.49,80.82-147.36,161.58-294.59,242.57-442.25Z"/><path d="M500,361.29c-47.61-81.02-94.94-161.57-142.46-242.44h284.92c-47.5,80.83-94.85,161.42-142.46,242.44Z"/></svg>